# Blender v2.75 (sub 0) OBJ File: ''
# www.blender.org
mtllib 2Tall.mtl
o Cube
v 1.000000 -1.000000 -1.000000
v 1.000000 -1.000000 1.000000
v -1.000000 -1.000000 1.000000
v -1.000000 -1.000000 -1.000000
v 1.000000 1.000000 -0.999999
v 0.999999 1.000000 1.000001
v -1.000000 1.000000 1.000000
v -1.000000 1.000000 -1.000000
v 1.000000 3.000000 -0.999999
v 0.999999 3.000000 1.000001
v -1.000000 3.000000 -1.000000
v -1.000000 3.000000 1.000000
vn 0.000000 -1.000000 0.000000
vn -1.000000 0.000000 -0.000000
vn 1.000000 0.000000 0.000000
vn -0.000000 -0.000000 1.000000
vn 0.000000 0.000000 -1.000000
vn 0.000000 1.000000 0.000000
usemtl Material
s off
f 1//1 2//1 3//1 4//1
f 8//2 7//2 12//2 11//2
f 1//3 5//3 6//3 2//3
f 2//4 6//4 7//4 3//4
f 3//2 7//2 8//2 4//2
f 5//5 1//5 4//5 8//5
f 9//6 11//6 12//6 10//6
f 5//5 8//5 11//5 9//5
f 7//4 6//4 10//4 12//4
f 6//3 5//3 9//3 10//3
